<?xml version='1.0' encoding='iso-8859-1'?>
<!DOCTYPE svg PUBLIC '-//W3C//DTD SVG 1.1//EN' 'http://www.w3.org/Graphics/SVG/1.1/DTD/svg11.dtd'>
<!-- Uploaded to: SVG Repo, www.svgrepo.com, Generator: SVG Repo Mixer Tools -->
<svg fill="currentColor" height="800px" width="800px" version="1.1" xmlns="http://www.w3.org/2000/svg" viewBox="0 0 442.41 442.41" xmlns:xlink="http://www.w3.org/1999/xlink" enable-background="new 0 0 442.41 442.41">
  <path d="m432.41,150.458h-12.134v-4.187c0-15.06-12.252-27.312-27.313-27.312h-343.517c-15.06,0-27.312,12.252-27.312,27.312v4.187h-12.134c-5.523,0-10,4.477-10,10s4.477,10 10,10h11.056l22.621,127.686c2.598,14.664 15.292,25.307 30.184,25.307h294.687c14.893,0 27.587-10.643 30.185-25.307l22.621-127.686h11.056c5.522,0 10-4.477 10-10s-4.477-10-10-10zm-390.276-4.187c-1.42109e-14-4.032 3.28-7.312 7.312-7.312h343.518c4.032,0 7.313,3.28 7.313,7.312v4.187h-358.143v-4.187zm336.905,148.384c-0.902,5.096-5.314,8.795-10.491,8.795h-294.687c-5.176,0-9.588-3.699-10.491-8.796l-22.002-124.196h359.674l-22.003,124.197z"/>
</svg>